<?xml version="1.0" encoding="UTF-8" standalone="no"?>
<!-- Created with Inkscape (http://www.inkscape.org/) -->

<svg
   xmlns:dc="http://purl.org/dc/elements/1.1/"
   xmlns:cc="http://creativecommons.org/ns#"
   xmlns:rdf="http://www.w3.org/1999/02/22-rdf-syntax-ns#"
   xmlns:svg="http://www.w3.org/2000/svg"
   xmlns="http://www.w3.org/2000/svg"
   xmlns:xlink="http://www.w3.org/1999/xlink"
   xmlns:sodipodi="http://sodipodi.sourceforge.net/DTD/sodipodi-0.dtd"
   xmlns:inkscape="http://www.inkscape.org/namespaces/inkscape"
   width="370.66528mm"
   height="178.49985mm"
   viewBox="0 0 370.66528 178.49985"
   version="1.1"
   id="svg8"
   inkscape:version="0.92.2 5c3e80d, 2017-08-06"
   sodipodi:docname="unitibyhookmeup.svg">
  <defs
     id="defs2">
    <linearGradient
       gradientUnits="userSpaceOnUse"
       gradientTransform="scale(1.3355578,0.74875083)"
       x1="35.767288"
       y1="1635.2241"
       x2="306.77753"
       y2="1716.1436"
       id="linearGradient-1">
      <stop
         stop-color="#1B7575"
         offset="0%"
         id="stop1891" />
      <stop
         stop-color="#439F8B"
         offset="56.4466236%"
         id="stop1893" />
      <stop
         stop-color="#3C988B"
         offset="100%"
         id="stop1895" />
    </linearGradient>
    <linearGradient
       gradientUnits="userSpaceOnUse"
       gradientTransform="scale(1.196137,0.83602461)"
       x1="263.54391"
       y1="1324.538"
       x2="491.40121"
       y2="1430.205"
       id="linearGradient-2">
      <stop
         stop-color="#1B7575"
         offset="0%"
         id="stop1898" />
      <stop
         stop-color="#439F8B"
         offset="56.4466236%"
         id="stop1900" />
      <stop
         stop-color="#3C988B"
         offset="100%"
         id="stop1902" />
    </linearGradient>
    <linearGradient
       gradientUnits="userSpaceOnUse"
       gradientTransform="scale(1.2086082,0.82739797)"
       x1="272.9816"
       y1="1122.6971"
       x2="585.61462"
       y2="1262.4169"
       id="linearGradient-3">
      <stop
         stop-color="#1A7473"
         offset="0%"
         id="stop1905" />
      <stop
         stop-color="#439F8B"
         offset="56.4466236%"
         id="stop1907" />
      <stop
         stop-color="#3C988B"
         offset="100%"
         id="stop1909" />
    </linearGradient>
    <linearGradient
       gradientUnits="userSpaceOnUse"
       gradientTransform="scale(1.2317604,0.81184619)"
       x1="478.85565"
       y1="1068.6156"
       x2="744.27496"
       y2="1177.5656"
       id="linearGradient-4">
      <stop
         stop-color="#1D7873"
         offset="0%"
         id="stop1912" />
      <stop
         stop-color="#439F8B"
         offset="56.4466236%"
         id="stop1914" />
      <stop
         stop-color="#3C988B"
         offset="100%"
         id="stop1916" />
    </linearGradient>
    <linearGradient
       gradientUnits="userSpaceOnUse"
       gradientTransform="scale(1.2922277,0.77385743)"
       x1="631.54993"
       y1="1083.2668"
       x2="942.35797"
       y2="1195.0677"
       id="linearGradient-5">
      <stop
         stop-color="#238072"
         offset="0%"
         id="stop1919" />
      <stop
         stop-color="#439F8B"
         offset="56.4466236%"
         id="stop1921" />
      <stop
         stop-color="#3C988B"
         offset="100%"
         id="stop1923" />
    </linearGradient>
    <linearGradient
       gradientUnits="userSpaceOnUse"
       gradientTransform="scale(1.3068311,0.76520985)"
       x1="811.31226"
       y1="1036.015"
       x2="1090.9854"
       y2="1126.7903"
       id="linearGradient-6">
      <stop
         stop-color="#1B7575"
         offset="0%"
         id="stop1926" />
      <stop
         stop-color="#439F8B"
         offset="56.4466236%"
         id="stop1928" />
      <stop
         stop-color="#3C988B"
         offset="100%"
         id="stop1930" />
    </linearGradient>
    <linearGradient
       gradientUnits="userSpaceOnUse"
       gradientTransform="scale(1.3469573,0.74241403)"
       x1="841.34839"
       y1="305.52463"
       x2="1522.48"
       y2="503.29486"
       id="linearGradient-7">
      <stop
         stop-color="#1B7575"
         offset="0%"
         id="stop1933" />
      <stop
         stop-color="#439F8B"
         offset="56.4466236%"
         id="stop1935" />
      <stop
         stop-color="#3C988B"
         offset="100%"
         id="stop1937" />
    </linearGradient>
    <linearGradient
       gradientUnits="userSpaceOnUse"
       gradientTransform="scale(1.3573616,0.73672335)"
       x1="922.90088"
       y1="919.27527"
       x2="204.28584"
       y2="1134.1263"
       id="linearGradient-8">
      <stop
         stop-color="#2D8C71"
         offset="0%"
         id="stop1940" />
      <stop
         stop-color="#439F8B"
         offset="54.0150813%"
         id="stop1942" />
      <stop
         stop-color="#3C988B"
         offset="100%"
         id="stop1944" />
    </linearGradient>
    <linearGradient
       gradientUnits="userSpaceOnUse"
       gradientTransform="scale(1.3247249,0.75487372)"
       x1="945.65033"
       y1="1138.3656"
       x2="209.30647"
       y2="1381.7891"
       id="linearGradient-9">
      <stop
         stop-color="#2D8C71"
         offset="0%"
         id="stop1947" />
      <stop
         stop-color="#439F8B"
         offset="54.0150813%"
         id="stop1949" />
      <stop
         stop-color="#3C988B"
         offset="100%"
         id="stop1951" />
    </linearGradient>
    <linearGradient
       gradientUnits="userSpaceOnUse"
       gradientTransform="scale(1.2818489,0.78012314)"
       x1="1025.6622"
       y1="1179.4775"
       x2="826.35016"
       y2="1253.973"
       id="linearGradient-10">
      <stop
         stop-color="#2D8C71"
         offset="0%"
         id="stop1954" />
      <stop
         stop-color="#439F8B"
         offset="54.0150813%"
         id="stop1956" />
      <stop
         stop-color="#3C988B"
         offset="100%"
         id="stop1958" />
    </linearGradient>
    <filter
       id="filter2480"
       inkscape:label="Drop Shadow"
       style="color-interpolation-filters:sRGB">
      <feFlood
         id="feFlood2470"
         result="flood"
         flood-color="rgb(0,0,0)"
         flood-opacity="0.498039" />
      <feComposite
         id="feComposite2472"
         result="composite1"
         operator="in"
         in2="SourceGraphic"
         in="flood" />
      <feGaussianBlur
         id="feGaussianBlur2474"
         result="blur"
         stdDeviation="1.2"
         in="composite1" />
      <feOffset
         id="feOffset2476"
         result="offset"
         dy="2.5"
         dx="2.5" />
      <feComposite
         id="feComposite2478"
         result="composite2"
         operator="over"
         in2="offset"
         in="SourceGraphic" />
    </filter>
    <linearGradient
       gradientUnits="userSpaceOnUse"
       gradientTransform="scale(1.2190439,0.82031498)"
       x1="236.08974"
       y1="3491.1079"
       x2="1100.0917"
       y2="3161.3696"
       id="linearGradient-1-8">
      <stop
         stop-color="#197373"
         offset="0%"
         id="stop2670" />
      <stop
         stop-color="#3C9E70"
         offset="100%"
         id="stop2672" />
    </linearGradient>
    <path
       inkscape:connector-curvature="0"
       d="M 1,2227.8426 1441,2218 v 534.7272 c -348.9823,148.1014 -538.15677,225.0709 -567.52344,230.9086 -29.36666,5.8376 -63.64906,-0.1854 -102.84719,-18.0692 -38.53068,-19.9925 -70.89643,-24.9906 -97.09723,-14.9944 C 647.33134,2960.5685 423.15396,3039.3777 1,3187 Z"
       id="path-2" />
    <linearGradient
       gradientUnits="userSpaceOnUse"
       gradientTransform="scale(1.2190439,0.82031498)"
       id="linearGradient4606"
       y2="3161.3696"
       x2="1100.0917"
       y1="3491.1079"
       x1="236.08974">
      <stop
         id="stop4602"
         offset="0%"
         stop-color="#197373"
         style="stop-color:#646464;stop-opacity:1" />
      <stop
         id="stop4604"
         offset="100%"
         stop-color="#3C9E70"
         style="stop-color:#646464;stop-opacity:1" />
    </linearGradient>
    <path
       inkscape:connector-curvature="0"
       d="M 1,2227.8426 1441,2218 v 534.7272 c -348.9823,148.1014 -538.15677,225.0709 -567.52344,230.9086 -29.36666,5.8376 -63.64906,-0.1854 -102.84719,-18.0692 -38.53068,-19.9925 -70.89643,-24.9906 -97.09723,-14.9944 C 647.33134,2960.5685 423.15396,3039.3777 1,3187 Z"
       id="path-2-8" />
    <mask
       id="mask-3-3"
       fill="white">
      <use
         xlink:href="#path-2-8"
         id="use3773"
         x="0"
         y="0"
         width="100%"
         height="100%" />
    </mask>
    <mask
       fill="white"
       id="mask3787">
      <use
         height="100%"
         width="100%"
         y="0"
         x="0"
         id="use3785"
         xlink:href="#path-2-8" />
    </mask>
    <clipPath
       clipPathUnits="userSpaceOnUse"
       id="clipPath4701">
      <path
         style="fill:#646464;fill-opacity:1"
         d="M 1587.9927,3347.2068 H -151.16424 V 2746.8573 H 1587.9927 Z"
         id="path4703"
         inkscape:connector-curvature="0"
         clip-path="none" />
    </clipPath>
    <clipPath
       id="clipPath2875"
       clipPathUnits="userSpaceOnUse">
      <rect
         y="280.76111"
         x="-8.6483727"
         height="780.09497"
         width="1184.5892"
         id="rect2877"
         style="fill:#ffffff;fill-opacity:1;stroke:none;stroke-width:8.50073147;stroke-opacity:1" />
    </clipPath>
  </defs>
  <sodipodi:namedview
     id="base"
     pagecolor="#ffffff"
     bordercolor="#666666"
     borderopacity="1.0"
     inkscape:pageopacity="0.0"
     inkscape:pageshadow="2"
     inkscape:zoom="0.35355339"
     inkscape:cx="220.42569"
     inkscape:cy="513.84909"
     inkscape:document-units="mm"
     inkscape:current-layer="layer1"
     showgrid="false"
     inkscape:snap-nodes="false"
     fit-margin-top="0"
     fit-margin-left="0"
     fit-margin-right="0"
     fit-margin-bottom="0"
     inkscape:window-width="1391"
     inkscape:window-height="840"
     inkscape:window-x="0"
     inkscape:window-y="0"
     inkscape:window-maximized="0" />
  <metadata
     id="metadata5">
    <rdf:RDF>
      <cc:Work
         rdf:about="">
        <dc:format>image/svg+xml</dc:format>
        <dc:type
           rdf:resource="http://purl.org/dc/dcmitype/StillImage" />
        <dc:title></dc:title>
      </cc:Work>
    </rdf:RDF>
  </metadata>
  <g
     inkscape:label="Layer 1"
     inkscape:groupmode="layer"
     id="layer1"
     transform="translate(28.859973,-289.04395)">
    <path
       style="fill:#c52033;fill-opacity:1;stroke-width:0.24239819"
       d="m 59.676159,467.48784 c -0.73325,-0.0491 -3.296612,-0.2046 -5.696359,-0.34561 C 42.162199,466.44781 31.390942,464.14616 22.831639,460.48634 14.632641,456.98059 8.3113204,451.4994 5.1353375,445.14196 2.4811208,439.82895 1.6460586,433.62839 2.6025199,426.33518 3.457316,419.81724 6.5466493,411.80003 11.591213,403.00838 l 1.544493,-2.69174 v -24.51746 -24.51746 h 5.211559 5.211569 v 16.96787 c 0,13.41443 0.06349,16.9672 0.302989,16.96463 0.166657,-0.002 0.902161,-0.73807 1.634459,-1.63619 2.277972,-2.79379 6.98804,-7.98334 10.970254,-12.08702 l 3.817765,-3.93423 v -8.14208 -8.14209 l 5.514567,0.0651 5.514558,0.0651 v 25.81541 25.8154 l -5.512817,0.0651 -5.512818,0.0651 -0.0623,-15.92205 c -0.04059,-10.35439 -0.147106,-15.94578 -0.304739,-15.9899 -0.485093,-0.13578 -9.700195,11.86336 -14.028182,18.26633 l -2.333701,3.45255 v 5.09199 5.09198 h -2.767747 c -1.522266,0 -2.95311,0.0711 -3.179647,0.15805 -0.226536,0.087 -1.274228,1.91402 -2.328204,4.06018 -11.7893568,24.00615 -8.1059914,39.19354 11.377867,46.91371 7.053096,2.79468 16.264405,4.6912 27.803505,5.72449 5.920258,0.53014 23.066301,0.73293 31.511763,0.3727 20.990184,-0.89532 44.323644,-3.31559 80.889554,-8.39028 11.00375,-1.52713 14.15732,-1.84618 12.79735,-1.29475 -1.02904,0.41725 -8.52686,2.34729 -15.39229,3.96219 -28.54294,6.71391 -55.8492,11.03942 -78.900611,12.49841 -3.989726,0.25252 -23.165401,0.49747 -25.694206,0.32822 z m 1.389718,-64.78862 c -2.983646,-0.7781 -4.909248,-2.74254 -6.024231,-6.14574 L 54.4646,394.79219 v -17.57386 -17.57388 l 0.566584,-1.64046 c 1.051713,-3.04511 2.769752,-4.91469 5.546138,-6.03534 1.395444,-0.56325 1.44913,-0.56574 12.18834,-0.56574 10.67048,0 10.801462,0.006 12.15501,0.55328 2.813224,1.13753 4.617711,3.03059 5.595611,5.87028 0.538211,1.56288 0.543194,1.71043 0.618117,18.28989 0.04929,10.91374 -0.01356,17.30704 -0.181114,18.42226 -0.524798,3.49253 -2.395789,6.18737 -5.210286,7.50453 -2.185679,1.02288 -3.280937,1.11252 -13.413462,1.09781 -8.38441,-0.0122 -9.834585,-0.0691 -11.263661,-0.44174 z m 19.826774,-13.6648 c 0.0754,-0.30041 0.104753,-1.41847 0.06523,-2.48458 l -0.07192,-1.93837 H 73.129225 65.37248 l -0.07192,1.93837 c -0.03949,1.06611 -0.01017,2.18417 0.06523,2.48458 l 0.137093,0.54621 h 7.626303 7.626304 z m 5.632375,-14.90869 0.06386,-8.06176 -13.638167,0.0627 -13.638167,0.0626 -0.06779,7.51435 c -0.03729,4.13288 -0.0073,7.76068 0.06569,8.06177 l 0.133547,0.54743 13.508569,-0.0627 13.508568,-0.0627 z m -23.30712,6.10544 c -0.08154,-0.21236 -0.148169,-2.87266 -0.148169,-5.91177 0,-4.37592 0.06889,-5.58285 0.331216,-5.80054 0.237595,-0.19719 3.063983,-0.25697 9.998923,-0.21148 l 9.667708,0.0634 v 6.05997 6.05995 l -9.850755,0.0633 c -8.825105,0.0567 -9.866182,0.0231 -9.998923,-0.32282 z m 18.637684,-5.80043 v -4.84796 l -8.455265,-0.0638 c -6.03844,-0.0455 -8.550077,0.0149 -8.786938,0.21148 -0.257878,0.21402 -0.331665,1.23486 -0.331665,4.58891 0,2.37252 0.0667,4.48758 0.148297,4.70012 0.132521,0.34535 1.067325,0.37969 8.786939,0.32283 l 8.638632,-0.0637 z m 18.96359,28.26848 c -2.983643,-0.7781 -4.909249,-2.74254 -6.024227,-6.14574 l -0.577055,-1.76129 v -17.57386 -17.57388 l 0.566584,-1.64046 c 1.051721,-3.04511 2.769757,-4.91469 5.546138,-6.03534 1.39545,-0.56325 1.44913,-0.56574 12.18834,-0.56574 10.67049,0 10.80147,0.006 12.15502,0.55328 2.81322,1.13753 4.61771,3.03059 5.59561,5.87028 0.53821,1.56288 0.54319,1.71043 0.61811,18.28989 0.0493,10.91374 -0.0136,17.30704 -0.18111,18.42226 -0.5248,3.49253 -2.39579,6.18737 -5.21029,7.50453 -2.18568,1.02288 -3.28093,1.11252 -13.41346,1.09781 -8.38441,-0.0122 -9.83458,-0.0691 -11.26366,-0.44174 z m 22.54885,-8.7254 c 1.24578,-0.63555 2.15525,-1.72742 2.50751,-3.01042 0.20365,-0.74172 0.24558,-4.89942 0.15403,-15.2723 l -0.12581,-14.25312 -0.58621,-1.13916 c -0.65277,-1.2685 -1.70771,-2.09401 -3.19987,-2.50395 -0.70648,-0.1941 -3.57904,-0.22454 -9.94141,-0.10536 -9.88989,0.18526 -10.00491,0.2038 -11.37675,1.83413 -1.1667,1.38655 -1.191931,1.78698 -1.07678,17.08869 0.105969,14.08188 0.115678,14.3171 0.63213,15.31764 0.5981,1.15872 1.7164,2.09612 2.95296,2.47527 0.56583,0.17348 3.88661,0.22715 9.97057,0.16113 8.5894,-0.0932 9.17867,-0.12781 10.08963,-0.59255 z m -20.38573,-1.74018 c -1.41197,-1.11065 -1.37125,-0.62546 -1.37125,-16.34003 v -14.43829 l 0.82955,-0.90543 0.82955,-0.90544 9.29057,-0.0615 c 10.17726,-0.0673 10.05985,-0.082 11.04068,1.37349 l 0.55268,0.82011 v 14.51161 14.51159 l -0.82956,0.90544 -0.82955,0.90544 -9.42946,0.0686 c -9.29427,0.0676 -9.43884,0.0613 -10.08321,-0.44561 z m 12.32424,-2.65301 v -2.30279 h -2.30278 -2.30278 l -0.0711,2.04013 c -0.0391,1.12207 -0.0136,2.1897 0.0565,2.37253 0.0982,0.25578 0.64542,0.31633 2.37384,0.26266 l 2.24628,-0.0697 z m -3.65734,1.36489 c -0.07,-0.18253 -0.0939,-0.91882 -0.053,-1.63619 l 0.0744,-1.30429 1.17022,-0.0747 c 0.65484,-0.0418 1.32207,0.0514 1.51499,0.21149 0.42509,0.35279 0.46452,2.43403 0.0539,2.84466 -0.41178,0.41178 -2.59919,0.37928 -2.76047,-0.041 z m 10.05712,-5.63367 c 0.28731,-0.0908 0.31914,-1.72061 0.20596,-10.54835 -0.0739,-5.76906 -0.23286,-10.53991 -0.35509,-10.66215 -0.1275,-0.12749 -3.86087,-0.19422 -8.8111,-0.15748 l -8.58986,0.0638 -0.0632,10.64962 c -0.0496,8.35856 0.003,10.69154 0.2424,10.84443 0.30438,0.19405 16.7242,0.0147 17.37088,-0.18981 z M 133.85,377.21833 v -25.94555 l 5.63576,0.065 5.63576,0.065 0.1212,11.75631 0.1212,11.75631 1.7229,-3.02998 c 0.94761,-1.66648 3.82493,-6.84775 6.39408,-11.51391 2.56914,-4.66616 4.77959,-8.62028 4.91212,-8.78693 0.1816,-0.22835 1.78275,-0.303 6.49933,-0.303 3.4421,0 6.31431,0.0905 6.38268,0.20115 0.0684,0.11063 -2.94511,5.75548 -6.69664,12.54411 -3.75152,6.78862 -6.80799,12.50657 -6.79214,12.70655 0.0159,0.19998 3.14486,6.07105 6.95335,13.04685 3.80849,6.97578 6.92452,12.83878 6.92452,13.0289 0,0.29054 -1.0202,0.34565 -6.39904,0.34565 h -6.39903 l -6.17898,-11.08971 c -3.39843,-6.09935 -6.43642,-11.58058 -6.75106,-12.18052 l -0.57209,-1.09078 -0.1212,12.1199 -0.1212,12.11991 -5.63576,0.0651 -5.63576,0.065 z m 126.96763,25.22618 c -1.88938,-0.6041 -3.30583,-1.47557 -4.49472,-2.76536 -1.93708,-2.1015 -2.72819,-4.43582 -2.72819,-8.05007 v -2.04845 l 0.90899,0.004 c 1.49706,0.005 3.94612,0.68804 5.87816,1.63724 2.48388,1.22032 4.90207,3.64086 6.10998,6.11592 0.94628,1.93889 1.75885,4.69105 1.54759,5.24158 -0.2037,0.53084 -5.44637,0.43323 -7.22181,-0.13444 z m 10.59602,0.16502 c -0.0568,-0.16665 -0.27645,-1.012 -0.48809,-1.87858 -0.77342,-3.16688 -2.23489,-6.13099 -4.04626,-8.20639 -0.39036,-0.4473 -0.66436,-0.85866 -0.60888,-0.91415 0.0555,-0.0555 1.65146,-0.0268 3.5466,0.0636 l 3.44572,0.16449 0.69541,1.21764 c 1.01075,1.76976 2.38579,6.10957 2.57258,8.11948 l 0.16144,1.73692 h -2.58761 c -1.85337,0 -2.6169,-0.0859 -2.69091,-0.303 z m 8.52584,0.1212 c -0.0579,-0.1 -0.1835,-0.82702 -0.27914,-1.61562 -0.25729,-2.12107 -1.01911,-4.85276 -1.98111,-7.10361 -0.46844,-1.09598 -0.78994,-2.09259 -0.71447,-2.21471 0.0755,-0.1221 0.50275,-0.29059 0.94951,-0.37441 1.39054,-0.26086 1.914,-1.07263 2.04908,-3.17763 0.0768,-1.19669 0.21172,-1.8034 0.38823,-1.74586 0.7654,0.2495 3.41282,5.85 4.3127,9.12326 0.5995,2.18068 1.16269,5.5714 0.99705,6.00299 -0.28067,0.73145 -5.36928,1.71468 -5.72185,1.10559 z m 14.37811,-25.75034 v -25.94107 h 14.25751 c 15.50778,0 15.44978,-0.005 18.04326,1.39541 0.63395,0.34218 1.19752,0.57724 1.25241,0.52236 0.37601,-0.37604 3.04544,-5.13368 4.00015,-7.12934 8.1799,-17.09869 3.3026,-26.76834 -15.9515,-31.6252 -8.62133,-2.17474 -17.97327,-3.00933 -33.47934,-2.9878 -23.68585,0.0329 -49.55461,2.59898 -106.8976,10.60379 -12.48855,1.74334 -11.87751,1.67209 -11.87751,1.38493 0,-0.32374 1.22632,-0.67337 10.78672,-3.07525 27.84659,-6.99597 56.53733,-12.17721 81.0822,-14.64258 18.09183,-1.8172 38.55025,-1.96899 50.78242,-0.37676 7.6039,0.98978 15.7359,3.14044 20.69278,5.47261 6.96169,3.27544 11.7496,8.02442 13.77193,13.66002 1.03222,2.87647 1.32824,7.85061 0.68598,11.52672 -0.88565,5.06925 -3.89769,11.81811 -8.00559,17.93746 l -2.35943,3.51478 0.27246,1.64069 c 0.41866,2.521 0.3529,15.87742 -0.0884,17.96049 -0.63564,3.0002 -2.3949,5.22277 -5.17758,6.54116 l -1.61226,0.76386 -9.33233,0.1212 -9.33233,0.12119 -0.1212,9.21114 -0.1212,9.21113 -5.63576,0.065 -5.63576,0.065 z m 16.31946,1.59819 c 0.0812,-0.38873 -2.38479,-3.54314 -2.87385,-3.6762 -0.27073,-0.0737 -1.19194,-0.10083 -2.0471,-0.0604 l -1.55483,0.0736 0.75049,0.8484 c 0.82769,0.93565 2.95206,2.29854 4.37002,2.80357 0.962,0.34263 1.28551,0.34527 1.35527,0.0111 z m 7.1155,-0.63365 c 1.40529,-0.64279 3.71364,-2.46968 3.71364,-2.93906 0,-0.25525 -3.40453,-0.2787 -3.77794,-0.026 -0.45482,0.30777 -2.52441,3.28909 -2.52441,3.63649 0,0.4075 0.53121,0.26972 2.58871,-0.67141 z m -5.54701,-1.3932 -0.0717,-1.6362 -1.27259,-0.0733 c -0.83181,-0.0479 -1.27259,0.0222 -1.27259,0.20227 0,0.36007 2.18778,3.14338 2.47081,3.14338 0.11975,0 0.18547,-0.73629 0.14604,-1.63619 z m 2.92306,0.10629 c 0.55266,-0.71636 1.00483,-1.43444 1.00483,-1.59574 0,-0.20149 -0.39823,-0.27034 -1.27259,-0.22001 l -1.27259,0.0733 -0.0744,1.30431 c -0.0799,1.40021 0.0653,2.07716 0.401,1.86971 0.11488,-0.071 0.66105,-0.71519 1.21372,-1.43154 z m -8.11087,-3.27639 c 0.12283,-0.19873 -0.88764,-4.16412 -1.1828,-4.64171 -0.0843,-0.13636 -1.01943,-0.24793 -2.07811,-0.24793 h -1.92488 v 0.8044 c 0,1.16053 0.67612,3.26529 1.22535,3.81452 0.37641,0.37643 0.81052,0.47144 2.15392,0.47144 0.92536,0 1.73831,-0.0903 1.80652,-0.20072 z m 5.11614,-2.34446 v -2.42398 h -2.42067 c -2.85896,0 -2.85491,-0.005 -2.08128,2.54209 0.69183,2.27772 0.91876,2.46413 2.89351,2.37691 l 1.60844,-0.0711 z m 5.59777,1.2307 c 0.33099,-0.72297 0.66785,-1.87229 0.74859,-2.55405 l 0.1468,-1.23956 -2.51939,0.0694 -2.51939,0.0694 -0.0706,2.1624 c -0.0389,1.18932 -0.015,2.30738 0.053,2.48458 0.0868,0.22604 0.63625,0.32219 1.84143,0.32219 h 1.71781 z m 5.05293,0.76511 c 0.52559,-0.80214 1.07441,-2.46966 1.15586,-3.51194 l 0.0709,-0.90785 h -2.05814 -2.05813 l -0.63983,2.30278 c -0.35189,1.26653 -0.59189,2.38459 -0.53333,2.48458 0.0585,0.1 0.91561,0.1818 1.90458,0.1818 1.60104,0 1.83752,-0.0602 2.15805,-0.54937 z m -16.94964,-6.00092 c 0.29516,-0.47759 1.30563,-4.44297 1.1828,-4.64171 -0.0682,-0.11039 -0.88116,-0.20072 -1.80652,-0.20072 -1.3434,0 -1.77751,0.095 -2.15392,0.47145 -0.54923,0.54923 -1.22535,2.65398 -1.22535,3.81452 v 0.8044 h 1.92488 c 1.05868,0 1.99383,-0.11157 2.07811,-0.24794 z m 6.29894,-2.29725 v -2.42398 l -1.32025,-0.0749 c -2.06075,-0.11694 -2.33861,0.0264 -2.8858,1.48895 -0.59894,1.60081 -0.86357,2.95411 -0.64636,3.30555 0.10649,0.17232 0.99407,0.2422 2.50861,0.19753 l 2.3438,-0.0692 z m 6.34532,1.31448 c -0.0802,-0.67688 -0.41879,-1.82707 -0.7525,-2.55596 l -0.60672,-1.32528 -1.76587,0.0714 -1.76585,0.0714 -0.0706,2.1624 c -0.0389,1.18931 -0.015,2.30738 0.053,2.48458 0.0916,0.23876 0.76204,0.32218 2.58899,0.32218 h 2.46536 z m 5.43782,0.92771 c 0.10404,-1.17498 -0.57102,-3.65776 -1.18635,-4.36317 -0.28804,-0.33024 -0.75543,-0.4242 -2.11002,-0.4242 -0.95701,0 -1.80284,0.0628 -1.87963,0.1396 -0.12618,0.12617 0.92218,4.33352 1.18831,4.76897 0.20087,0.32871 3.95794,0.21452 3.98769,-0.1212 z m -16.23336,-6.07089 c 0.71009,-0.32396 3.19735,-3.48074 2.99742,-3.80425 -0.0696,-0.11267 -0.5348,-0.0925 -1.0337,0.0449 -1.55794,0.42897 -3.16494,1.37057 -4.36125,2.55537 l -1.1514,1.14031 1.09079,0.15239 c 1.64904,0.23037 1.76815,0.22607 2.45814,-0.0888 z m 4.52189,-1.68586 c 0.0394,-0.8999 -0.0249,-1.63618 -0.1429,-1.63618 -0.26968,0 -2.47396,2.81924 -2.47396,3.16417 0,0.15501 0.4982,0.22606 1.27259,0.18147 l 1.2726,-0.0733 z m 4.02097,1.45439 c -0.57809,-0.98437 -2.37112,-3.05958 -2.54869,-2.94982 -0.24543,0.15169 -0.28838,2.852 -0.0492,3.09122 0.0889,0.0889 0.74979,0.1616 1.46869,0.1616 0.97898,0 1.26244,-0.076 1.12917,-0.303 z m 5.23968,0.0812 c 0,-0.40839 -2.28797,-2.24583 -3.63597,-2.92002 -1.71666,-0.85856 -2.66638,-1.09667 -2.66638,-0.66848 0,0.33886 2.07808,3.32275 2.52441,3.62479 0.38238,0.25876 3.77794,0.22614 3.77794,-0.0363 z m -32.8149,37.73291 c -0.0418,-0.16664 -0.35824,-1.47104 -0.70332,-2.89866 -1.18069,-4.88475 -3.27586,-9.29121 -6.36554,-13.38759 l -1.56632,-2.07671 v -14.54771 -14.54771 l 5.63575,0.065 5.63576,0.065 v 21.33103 c 0,19.74254 -0.0322,21.44838 -0.43361,22.90664 -0.62417,2.26818 -1.94456,4.12079 -2.20272,3.09057 z m -25.7307,-9.28743 c -2.15417,-1.36124 -5.15639,-2.4524 -7.42788,-2.69966 l -1.77681,-0.19341 -0.0622,-17.63895 -0.0622,-17.63893 5.63736,0.065 5.63733,0.065 0.0585,9.21112 c 0.0322,5.06613 -0.0263,9.34354 -0.13007,9.50535 -0.14518,0.22646 -0.74481,0.18055 -2.60369,-0.19932 -1.32832,-0.27145 -3.39433,-0.51293 -4.59115,-0.53662 l -2.17601,-0.0431 -0.20328,1.42637 c -0.11627,0.81599 -0.11106,1.51855 0.0121,1.64181 0.11848,0.1185 1.36727,0.31665 2.77505,0.44034 2.91459,0.25607 5.62601,0.8273 6.43125,1.35492 0.5136,0.33652 0.54815,0.52424 0.54467,2.9595 -0.003,1.4301 -0.0966,2.74683 -0.21025,2.92607 -0.16777,0.26474 -0.52637,0.2105 -1.91133,-0.28908 -2.12257,-0.76569 -5.24502,-1.36999 -7.07864,-1.36999 h -1.39369 l -0.14214,1.37731 c -0.0782,0.75751 -0.087,1.46653 -0.0196,1.57558 0.0673,0.10906 0.64946,0.19828 1.29344,0.19828 2.84985,0 8.70273,1.69311 9.22475,2.66851 0.28269,0.52822 0.32968,5.97457 0.053,6.14556 -0.10353,0.0639 -0.94889,-0.36433 -1.87858,-0.95183 z"
       id="path882"
       inkscape:connector-curvature="0"
       sodipodi:nodetypes="ccsscscccccsccccccccccccccccccscssssscsccccsccccssccccccccccccccccccccccsccccccscccccscccscsccccccccccsscccccccscscccscsccsscscccscccccccccccccccccccccccccccccccsccccccccccscscsscsscscccccccccsccscccccccccccccsccccccccccccccsccssssssssccsccccccccccccccccccccccscsccccsscccsccccccccscscscccscccccccccccscccccccccsccccscscsccccccccccccccccsccccsccccccscccccssccccccsccssscssccccccccsccccccccccccccccccccccscccscccc" />
    <path
       style="opacity:1;fill:#022034;fill-opacity:0.50196078;stroke:none;stroke-width:3.83639526;stroke-linecap:square;stroke-linejoin:miter;stroke-miterlimit:4;stroke-dasharray:none;stroke-opacity:1;paint-order:markers stroke fill"
       d="m 176.8637,399.88388 0.0166,-18.24046 c -0.0724,-17.85519 -0.15993,-20.57141 0.30726,-20.1039 0.12381,0.12382 2.24603,8.44367 4.82713,18.63719 3.45722,13.65359 4.88952,18.92299 5.43928,20.01206 0.7865,1.55801 1.83135,2.61227 3.12751,3.15544 1.14216,0.47862 4.01656,0.4994 5.20256,-0.0393 1.23831,-0.56246 2.67707,-2.09207 3.32682,-3.71456 0.2758,-0.6887 2.46433,-9.41404 5.0113,-19.27871 2.54698,-9.86468 4.68191,-17.98804 4.74429,-18.08895 0.50308,-0.81402 0.44833,1.46762 0.44833,19.99642 v 20.43011 h 4.49148 l 4.67373,0.0303 -0.11434,-22.31186 c -0.0678,-22.08 0.038,-22.17877 -0.48832,-23.4626 -0.76253,-1.86001 -2.07412,-3.30863 -3.83448,-4.2548 -1.41748,-0.76191 -1.97739,-1.1309 -4.35587,-1.21729 -3.75904,-0.0567 -5.7634,1.17811 -7.34628,2.37688 -1.98865,1.50612 -1.53907,2.5077 -5.38442,19.56173 -2.03575,9.02851 -4.17938,16.46327 -4.29689,16.5877 -1.03896,-3.97586 -3.17067,-13.65152 -3.8012,-16.53326 -1.97702,-9.0551 -3.80221,-16.98018 -4.01899,-17.50049 -1.51186,-3.16028 -4.01153,-4.49227 -6.09222,-5.05179 -2.92321,5.59319 -10.30908,20.20507 -12.41839,24.32729 0.0554,1.85025 0.0225,2.27137 0.10653,3.97308 3.20285,6.53814 6.78827,14.17477 10.42861,20.70977 z m 68.81788,-47.59904 c -0.0747,0.0449 -0.16988,0.0797 -0.29494,0.10794 -0.30839,0.0697 -3.99941,0.15494 -8.20225,0.18984 l -7.6417,0.0639 -1.6215,0.79868 c -1.77836,0.87598 -2.79027,1.92178 -3.68427,3.80689 -1.09975,2.31894 -1.13725,3.07625 -1.0586,21.45223 l 0.0743,17.33147 0.6363,1.35496 c 1.01908,2.17086 2.46684,3.38681 5.39999,4.53503 0.83204,0.32571 2.61277,0.41047 10.97514,0.52173 2.31683,0.0308 7.41459,0.0677 10.10976,0.10903 -4.5195,-3.21342 -4.47527,-9.42908 -4.47527,-9.42908 l -4.82966,0.0374 c -2.59972,0.0211 -5.09509,-0.0496 -5.54533,-0.15718 -1.15462,-0.27616 -2.01266,-0.96991 -2.57073,-2.07837 -0.39958,-0.79368 -0.49511,-1.56761 -0.57002,-4.60794 -0.0781,-3.1719 -0.0365,-3.70791 0.31578,-4.06017 0.35774,-0.35773 1.11973,-0.40621 6.42875,-0.40621 3.31255,0 6.19516,0.0663 6.40605,0.14726 0.056,0.0215 0.10479,0.055 0.14818,0.0951 v -9.70492 c -0.0151,0.0141 -0.03,0.0285 -0.0464,0.0389 -0.17831,0.11303 -3.07104,0.2072 -6.42782,0.20926 -5.22855,0.003 -6.15782,-0.0509 -6.48414,-0.37734 -0.30529,-0.3053 -0.3796,-0.96692 -0.37497,-3.33297 0.009,-4.51353 0.41245,-5.62107 2.42304,-6.64842 0.99733,-0.50962 1.37271,-0.54539 5.72286,-0.54539 2.56059,0 4.82836,0.0659 5.03924,0.14677 0.056,0.0215 0.10479,0.055 0.14818,0.0951 z"
       id="rect943"
       inkscape:connector-curvature="0"
       sodipodi:nodetypes="cccsccccscsccccccccsccccccccccccccccccccccccsccccccccscccc" />
    <path
       style="opacity:1;fill:#000000;fill-opacity:1;stroke:#3c9d70;stroke-width:0;stroke-miterlimit:4;stroke-dasharray:none;stroke-opacity:1"
       d="m 209.33751,350.20497 c -2.83737,0.003 -5.62476,0.92358 -7.38936,2.63324 -0.57783,0.55984 -1.32116,1.54623 -1.65181,2.192 -0.38288,0.74774 -1.7923,6.11725 -3.88168,14.7863 -1.80443,7.4867 -3.32652,13.65946 -3.38222,13.71727 -0.34493,0.35782 -0.87344,-1.72068 -3.48163,-13.69266 -3.13772,-14.40254 -3.45085,-15.42211 -5.24233,-17.07344 -1.19434,-1.10092 -1.94279,-1.51177 -3.70888,-2.03483 -1.40614,-0.41644 -1.96191,-0.25225 -1.96191,0.57902 0,0.30484 0.32025,0.50695 1.12345,0.7092 2.34053,0.58935 4.28553,2.12261 5.0648,3.99294 0.21678,0.52029 2.01166,8.35496 3.98868,17.41006 1.97702,9.05509 3.66114,16.53002 3.74249,16.61138 0.0814,0.0813 0.2442,0.0463 0.36171,-0.0782 0.1175,-0.12444 1.98256,-7.58915 4.14491,-16.58818 4.30644,-17.92199 4.50829,-18.54337 6.49694,-20.04946 1.58287,-1.19879 3.26176,-1.59277 6.3156,-1.48185 2.37849,0.0864 2.69382,0.15657 4.11131,0.91846 1.76036,0.94619 2.99274,2.31709 3.75527,4.17711 0.52633,1.28379 0.52731,1.32469 0.59511,23.40469 l 0.0677,22.11882 h -4.49146 -4.49195 V 382.2166 c 0,-18.52879 -0.0664,-20.87058 -0.56953,-20.05656 -0.0624,0.10094 -2.1973,8.2546 -4.74429,18.11927 -2.54697,9.86466 -4.85622,18.49911 -5.13202,19.1878 -0.64975,1.62251 -1.99762,3.18194 -3.23592,3.74439 -1.186,0.5387 -3.90891,0.6093 -5.05107,0.13067 -1.29616,-0.54317 -2.34102,-1.59742 -3.1275,-3.15544 -0.54977,-1.08908 -1.98206,-6.35848 -5.43929,-20.01205 -2.5811,-10.19353 -4.79422,-18.63507 -4.91803,-18.75888 -0.467,-0.4675 -0.53113,2.33961 -0.45875,20.1948 l 0.0743,18.30107 0.55014,1.03019 c 0.30267,0.56661 0.65718,1.03019 0.78778,1.03019 0.15238,0 0.23767,-5.12656 0.23767,-14.30149 0,-8.99051 0.0864,-14.30149 0.23293,-14.30149 0.27677,0 -0.0126,-1.06396 3.74439,13.76745 3.02794,11.95347 3.6345,13.84954 4.96963,15.53527 0.82872,1.04635 2.71131,2.1416 4.19605,2.44102 2.3993,0.48385 5.34155,-0.35945 6.90315,-1.97895 1.55085,-1.60837 2.12867,-3.33617 5.58415,-16.69186 1.9184,-7.41475 3.46911,-12.95575 3.64165,-13.01328 0.23689,-0.079 0.30016,3.12938 0.30016,15.16551 0,13.6964 0.0395,15.28016 0.38348,15.41216 0.5001,0.19193 10.61091,0.19193 11.11102,0 0.34577,-0.13268 0.38301,-2.33287 0.38301,-22.40999 0,-15.34845 -0.0834,-22.66161 -0.26844,-23.54718 -0.61169,-2.92674 -2.75384,-5.69449 -5.28778,-6.83166 -1.52862,-0.686 -3.24922,-1.0146 -4.95165,-1.01267 z m 28.58641,0.65949 c -7.99533,-0.0281 -10.25133,0.50151 -12.63973,2.68438 -1.53294,1.40102 -2.56886,3.24627 -3.19995,5.70062 -0.37966,1.47638 -0.42041,3.28169 -0.42041,18.48286 0,12.66787 0.0751,17.16691 0.30395,18.13726 1.09369,4.63844 4.50344,7.39395 9.93928,8.0318 6.6001,0.0501 13.18111,0.009 19.81368,-0.0852 -0.6865,-0.45132 -0.65017,-0.52892 -1.38883,-1.16116 -1.87783,-0.0898 -0.29294,-0.0808 -9.96033,-0.20944 -8.36237,-0.11125 -10.14264,-0.19601 -10.97468,-0.52172 -2.93314,-1.14822 -4.38137,-2.36417 -5.40046,-4.53503 l -0.63629,-1.35544 -0.0738,-17.33147 c -0.0786,-18.37597 -0.0416,-19.13328 1.05812,-21.45224 0.894,-1.8851 1.90639,-2.93091 3.68474,-3.80688 l 1.62151,-0.79869 7.6417,-0.0635 c 4.20284,-0.0349 7.89386,-0.1206 8.20224,-0.19032 0.44375,-0.10033 0.5448,-0.26409 0.48479,-0.78495 l -0.0758,-0.65808 -6.30235,-0.0701 c -0.58578,-0.006 -1.14435,-0.011 -1.67738,-0.0128 z m 2.67822,10.86957 c -4.35015,0 -4.72553,0.0358 -5.72287,0.54541 -2.01059,1.02736 -2.41387,2.13488 -2.42304,6.64843 -0.005,2.36603 0.0697,3.02767 0.37497,3.33297 0.32632,0.32639 1.25559,0.38008 6.48414,0.37733 3.35678,-0.002 6.24904,-0.0962 6.42735,-0.20926 0.17827,-0.11303 0.28738,-0.46578 0.2424,-0.78401 l -0.0815,-0.57854 -5.81756,-0.12119 -5.81755,-0.1212 -0.0705,-2.78758 c -0.0387,-1.53317 -0.01,-3.03118 0.064,-3.32872 0.27155,-1.09254 1.17823,-1.27684 6.27679,-1.27684 2.59544,0 4.89178,-0.0663 5.10267,-0.14724 0.49703,-0.19072 0.49703,-1.21158 0,-1.40231 -0.21089,-0.0809 -2.47865,-0.14724 -5.03923,-0.14724 z m -73.06885,11.11387 c -0.34995,0.65636 -0.79121,1.35954 -1.21579,2.05124 -0.002,1.58238 -0.0256,2.98613 -0.003,4.34861 0.58326,1.05191 0.77232,1.42283 1.32939,2.39324 -0.052,-2.47831 -0.10128,-6.49121 -0.11086,-8.79309 z m 71.70157,9.00519 c -5.30903,0 -6.07102,0.048 -6.42876,0.40573 -0.35225,0.35226 -0.39392,0.88826 -0.31578,4.06017 0.075,3.04032 0.17091,3.81473 0.57049,4.6084 0.55807,1.10848 1.41564,1.80175 2.57027,2.07791 0.45025,0.10763 2.94608,0.17873 5.54581,0.15766 l 4.72677,-0.0384 v -0.72719 -0.7272 l -5.29394,-0.12121 -5.29347,-0.12119 -0.58469,-0.68033 c -0.555,-0.64581 -0.58422,-0.84445 -0.58422,-3.93897 v -3.25864 h 5.55528 c 3.05543,0 5.72786,-0.0663 5.93875,-0.14724 0.49703,-0.19073 0.49703,-1.21158 0,-1.40231 -0.21089,-0.0809 -3.09397,-0.14724 -6.40651,-0.14724 z"
       id="rect903"
       inkscape:connector-curvature="0"
       sodipodi:nodetypes="cccscsccssccccsscccccccscscsccsccccsssscscscsccscscccccsccccsccccscccccccccccccccccccccscccccccccccccccccccscscccccc" />
    <g
       transform="matrix(1.7865948,0,0,1.7865948,-21.663006,-160.01615)"
       id="layer1-9"
       inkscape:label="Layer 1">
      <path
         style="fill:#ffbe31;fill-opacity:1;stroke:#ffbe31;stroke-width:0.12552364px;stroke-linecap:butt;stroke-linejoin:miter;stroke-opacity:1"
         d="m 18.917153,259.36194 h 5.267452 c 0,9.79768 -0.874019,13.69419 3.272,13.69419 4.16046,0 3.296745,-3.85875 3.296745,-13.69419 l 4.719388,8.17422 c 0,4.26145 -0.511927,10.12332 -8.016133,10.12332 -8.864653,0 -8.539452,-5.43014 -8.539452,-18.29754 z"
         id="path917"
         inkscape:connector-curvature="0"
         sodipodi:nodetypes="ccsccsc" />
      <path
         style="fill:#3c9d70;fill-opacity:1;stroke:#3c9d70;stroke-width:0.12552364px;stroke-linecap:butt;stroke-linejoin:miter;stroke-opacity:1"
         d="m 30.749512,259.19047 h 5.146328 l 6.903799,9.16323 v -9.16323 h 4.931289 v 18.46901 h -4.303669 l -7.479028,-10.29946 h -0.475493 z"
         id="path919"
         inkscape:connector-curvature="0" />
      <path
         style="fill:#3c9d70;fill-opacity:1;stroke:#3c9d70;stroke-width:0.12552364px;stroke-linecap:butt;stroke-linejoin:miter;stroke-opacity:1"
         d="m 48.992947,259.19047 h 4.958001 v 18.46901 h -4.958001 z"
         id="path923"
         inkscape:connector-curvature="0" />
      <path
         style="fill:#3c9d70;fill-opacity:1;stroke:#3c9d70;stroke-width:0.12552364px;stroke-linecap:butt;stroke-linejoin:miter;stroke-opacity:1"
         d="m 55.039076,259.19047 v 4.14326 h 5.246496 v 14.32575 h 4.707137 v -14.32575 h 5.295528 v -4.14326 z"
         id="path925"
         inkscape:connector-curvature="0" />
      <path
         id="path927"
         d="m 71.376364,259.19047 h 4.957999 v 18.46901 h -4.957999 z"
         style="fill:#3c9d70;fill-opacity:1;stroke:#3c9d70;stroke-width:0.12552364px;stroke-linecap:butt;stroke-linejoin:miter;stroke-opacity:1"
         inkscape:connector-curvature="0" />
    </g>
    <text
       xml:space="preserve"
       style="font-style:normal;font-weight:normal;font-size:13.50866508px;line-height:1.25;font-family:sans-serif;letter-spacing:0px;word-spacing:0px;fill:#c52033;fill-opacity:1;stroke:#c52033;stroke-width:0.98005366;stroke-miterlimit:4;stroke-dasharray:none;stroke-opacity:1"
       x="128.15781"
       y="335.13879"
       id="text1168"><tspan
         sodipodi:role="line"
         id="tspan1166"
         x="128.15781"
         y="335.13879"
         style="font-style:normal;font-variant:normal;font-weight:bold;font-stretch:normal;font-family:Verdana;-inkscape-font-specification:'Verdana Bold';fill:#c52033;fill-opacity:1;stroke:#c52033;stroke-width:0.98005366;stroke-miterlimit:4;stroke-dasharray:none;stroke-opacity:1">by</tspan></text>
  </g>
</svg>
