<?xml version="1.0" encoding="UTF-8" standalone="no"?>
<!-- Created with Inkscape (http://www.inkscape.org/) -->

<svg
   xmlns:dc="http://purl.org/dc/elements/1.1/"
   xmlns:cc="http://creativecommons.org/ns#"
   xmlns:rdf="http://www.w3.org/1999/02/22-rdf-syntax-ns#"
   xmlns:svg="http://www.w3.org/2000/svg"
   xmlns="http://www.w3.org/2000/svg"
   xmlns:sodipodi="http://sodipodi.sourceforge.net/DTD/sodipodi-0.dtd"
   xmlns:inkscape="http://www.inkscape.org/namespaces/inkscape"
   width="370.66528mm"
   height="178.49985mm"
   viewBox="0 0 370.66528 178.49985"
   version="1.1"
   id="svg8"
   inkscape:version="0.92.2 5c3e80d, 2017-08-06"
   sodipodi:docname="hookmeup.svg">
  <defs
     id="defs2" />
  <sodipodi:namedview
     id="base"
     pagecolor="#ffffff"
     bordercolor="#666666"
     borderopacity="1.0"
     inkscape:pageopacity="0.0"
     inkscape:pageshadow="2"
     inkscape:zoom="0.70710678"
     inkscape:cx="695.19494"
     inkscape:cy="397.48038"
     inkscape:document-units="mm"
     inkscape:current-layer="layer1"
     showgrid="false"
     inkscape:snap-nodes="false"
     fit-margin-top="0"
     fit-margin-left="0"
     fit-margin-right="0"
     fit-margin-bottom="0"
     inkscape:window-width="1391"
     inkscape:window-height="840"
     inkscape:window-x="0"
     inkscape:window-y="0"
     inkscape:window-maximized="0" />
  <metadata
     id="metadata5">
    <rdf:RDF>
      <cc:Work
         rdf:about="">
        <dc:format>image/svg+xml</dc:format>
        <dc:type
           rdf:resource="http://purl.org/dc/dcmitype/StillImage" />
        <dc:title></dc:title>
      </cc:Work>
    </rdf:RDF>
  </metadata>
  <g
     inkscape:label="Layer 1"
     inkscape:groupmode="layer"
     id="layer1"
     transform="translate(28.859973,-289.04395)">
    <path
       style="fill:#c52033;fill-opacity:1;stroke-width:0.26458332"
       d="m 33.854704,467.48272 c -0.80036,-0.0536 -3.59833,-0.22333 -6.21771,-0.37724 -12.89919,-0.75798 -24.6562703,-3.27028 -33.9989503,-7.26506 -8.9493997,-3.82661 -15.8492697,-9.80946 -19.3159297,-16.74875 -2.89714,-5.79928 -3.80863,-12.56734 -2.76463,-20.52805 0.93303,-7.11448 4.30511,-15.86546 9.81137,-25.46175 l 1.68585,-2.9381 V 367.40239 340.641 h 5.68854 5.6885497 v 18.52083 c 0,14.64217 0.0693,18.5201 0.33072,18.5173 0.18191,-0.002 0.98473,-0.80562 1.78405,-1.78594 2.48646002,-3.04949 7.62761,-8.71401 11.97429,-13.19327 l 4.1671803,-4.2943 v -8.88728 -8.88728 l 6.01928,0.0711 6.01927,0.0711 v 28.17813 28.17812 l -6.01737,0.0711 -6.01737,0.0711 -0.068,-17.37929 c -0.0443,-11.30206 -0.16057,-17.40519 -0.33263,-17.45335 -0.52949,-0.14821 -10.5879903,12.94913 -15.3120903,19.93813 l -2.54729,3.76854 v 5.55802 5.55802 h -3.02106 c -1.6615897,0 -3.2233897,0.0776 -3.4706597,0.17252 -0.24727,0.0949 -1.39085,2.08919 -2.54129,4.43178 -12.86836,26.20327 -8.84788,42.78067 12.4192097,51.20741 7.69862,3.05046 17.7529803,5.12056 30.3481803,6.24842 6.4621,0.57866 25.17741,0.80001 34.39583,0.40681 22.911273,-0.97726 48.380296,-3.61904 88.292846,-9.15819 12.01085,-1.6669 15.45305,-2.01515 13.96861,-1.41325 -1.12322,0.45544 -9.30727,2.56213 -16.80104,4.32483 -31.1553,7.32839 -60.960722,12.04978 -86.121876,13.6423 -4.35488,0.27564 -25.28558,0.54301 -28.04583,0.35826 z m 1.51691,-70.7183 c -3.25672,-0.84932 -5.35856,-2.99355 -6.57559,-6.70822 l -0.62986,-1.92249 v -19.18229 -19.1823 l 0.61844,-1.7906 c 1.14797,-3.32381 3.02325,-5.3645 6.05374,-6.58771 1.52316,-0.6148 1.58176,-0.61752 13.30386,-0.61752 11.64708,0 11.79005,0.007 13.26748,0.60391 3.0707,1.24165 5.04034,3.30797 6.10774,6.40755 0.58747,1.70592 0.59291,1.86698 0.67469,19.96385 0.0538,11.9126 -0.0148,18.89104 -0.19769,20.10833 -0.57283,3.81218 -2.61506,6.75366 -5.68715,8.19137 -2.38572,1.1165 -3.58122,1.21434 -14.64111,1.19828 -9.15178,-0.0133 -10.73468,-0.0754 -12.29455,-0.48216 z m 21.64139,-14.91545 c 0.0823,-0.32791 0.11434,-1.5483 0.0712,-2.71198 l -0.0785,-2.11578 h -8.46666 -8.46667 l -0.0785,2.11578 c -0.0431,1.16368 -0.0111,2.38407 0.0712,2.71198 l 0.14964,0.5962 h 8.32429 8.32429 z m 6.14787,-16.27319 0.0697,-8.7996 -14.88638,0.0684 -14.88638,0.0683 -0.074,8.20209 c -0.0407,4.51114 -0.008,8.47097 0.0717,8.79961 l 0.14577,0.59753 14.74492,-0.0684 14.74492,-0.0684 z m -25.44027,6.66423 c -0.089,-0.2318 -0.16173,-3.13558 -0.16173,-6.45284 0,-4.77641 0.0752,-6.09381 0.36153,-6.33142 0.25934,-0.21524 3.34441,-0.28049 10.91406,-0.23084 l 10.55253,0.0692 v 6.61459 6.61458 l -10.75233,0.0691 c -9.63281,0.0619 -10.76917,0.0252 -10.91406,-0.35237 z m 20.34347,-6.3313 v -5.29167 l -9.22912,-0.0696 c -6.5911,-0.0497 -9.33261,0.0163 -9.59115,0.23083 -0.28148,0.23361 -0.36202,1.34788 -0.36202,5.00891 0,2.58966 0.0728,4.89829 0.16187,5.13029 0.14465,0.37695 1.16501,0.41444 9.59115,0.35237 l 9.42927,-0.0695 z m 20.699205,30.85571 c -3.256717,-0.84932 -5.358561,-2.99355 -6.575585,-6.70822 l -0.62987,-1.92249 v -19.18229 -19.1823 l 0.61844,-1.7906 c 1.147978,-3.32381 3.023255,-5.3645 6.053745,-6.58771 1.523163,-0.6148 1.581758,-0.61752 13.30386,-0.61752 11.647081,0 11.790051,0.007 13.267481,0.60391 3.0707,1.24165 5.04034,3.30797 6.10774,6.40755 0.58747,1.70592 0.59291,1.86698 0.67469,19.96385 0.0538,11.9126 -0.0148,18.89104 -0.19769,20.10833 -0.57283,3.81218 -2.61506,6.75366 -5.68715,8.19137 -2.38572,1.1165 -3.58122,1.21434 -14.641114,1.19828 -9.151773,-0.0133 -10.734672,-0.0754 -12.294547,-0.48216 z m 24.612601,-9.52398 c 1.3598,-0.69372 2.3525,-1.88552 2.737,-3.28595 0.22229,-0.8096 0.26806,-5.34783 0.16813,-16.67007 l -0.13732,-15.55762 -0.63986,-1.24342 c -0.71252,-1.3846 -1.86401,-2.28566 -3.49274,-2.73312 -0.77114,-0.21186 -3.906609,-0.24509 -10.851281,-0.115 -10.79505,0.20221 -10.920594,0.22245 -12.41799,2.002 -1.27348,1.51345 -1.30102,1.95053 -1.17533,18.6527 0.115668,15.37071 0.126265,15.62745 0.689983,16.71957 0.652841,1.26477 1.873494,2.28796 3.223231,2.70181 0.617617,0.18936 4.242318,0.24794 10.883106,0.17588 9.375531,-0.10174 10.018741,-0.13951 11.013071,-0.64678 z m -22.251507,-1.89945 c -1.541195,-1.2123 -1.496753,-0.68271 -1.496753,-17.83553 v -15.75973 l 0.905473,-0.9883 0.905475,-0.98831 10.140879,-0.0671 c 11.108713,-0.0735 10.980563,-0.0895 12.051163,1.49919 l 0.60326,0.89517 v 15.83976 15.83975 l -0.90548,0.98831 -0.90548,0.9883 -10.292479,0.0749 c -10.144908,0.0738 -10.302714,0.0669 -11.006058,-0.48639 z m 13.452205,-2.89582 v -2.51355 h -2.513542 -2.513542 l -0.07756,2.22685 c -0.04266,1.22476 -0.0149,2.39011 0.06168,2.58967 0.107132,0.27919 0.70449,0.34528 2.591098,0.2867 l 2.451868,-0.0761 z m -3.992081,1.48981 c -0.07646,-0.19924 -0.102487,-1.00292 -0.05784,-1.78594 l 0.08117,-1.42367 1.277326,-0.0815 c 0.714764,-0.0456 1.443069,0.0561 1.653646,0.23084 0.463994,0.38508 0.507029,2.65681 0.05882,3.10502 -0.449468,0.44947 -2.837079,0.41399 -3.013122,-0.0448 z m 10.977583,-6.14929 c 0.31361,-0.0991 0.34835,-1.87808 0.22481,-11.51377 -0.0807,-6.29706 -0.25417,-11.50456 -0.38759,-11.63799 -0.13916,-0.13916 -4.214224,-0.21199 -9.617516,-0.17189 l -9.376039,0.0696 -0.06896,11.62431 c -0.05413,9.12356 0.0028,11.67006 0.264583,11.83695 0.332243,0.21181 18.254862,0.016 18.960722,-0.20719 z m 13.25512,-8.83427 v -28.32017 l 6.15156,0.071 6.15157,0.071 0.13229,12.83229 0.13229,12.83229 1.88059,-3.30729 c 1.03433,-1.81901 4.175,-7.47448 6.97928,-12.56771 2.80428,-5.09322 5.21704,-9.40924 5.3617,-9.59114 0.19822,-0.24925 1.94591,-0.33073 7.09417,-0.33073 3.75713,0 6.89222,0.0988 6.96685,0.21956 0.0746,0.12076 -3.21466,6.28224 -7.30954,13.69219 -4.09488,7.40994 -7.43108,13.65122 -7.41378,13.8695 0.0173,0.21828 3.43269,6.6267 7.58974,14.24094 4.15706,7.61423 7.55828,14.01384 7.55828,14.22135 0,0.31714 -1.11358,0.37729 -6.9847,0.37729 h -6.9847 l -6.7445,-12.10468 c -3.70947,-6.65758 -7.0255,-12.64047 -7.36894,-13.29532 l -0.62445,-1.19062 -0.13229,13.22916 -0.13229,13.22917 -6.15157,0.071 -6.15156,0.071 z m 138.58815,27.53497 c -2.0623,-0.65939 -3.60839,-1.61062 -4.90609,-3.01845 -2.11437,-2.29384 -2.97789,-4.8418 -2.97789,-8.78684 v -2.23593 l 0.99219,0.004 c 1.63407,0.006 4.30728,0.75101 6.41615,1.78709 2.71121,1.33201 5.35072,3.97408 6.66919,6.67567 1.03288,2.11634 1.91982,5.12039 1.68923,5.72131 -0.22235,0.57942 -5.94484,0.47288 -7.88278,-0.14675 z m 11.56581,0.18013 c -0.062,-0.1819 -0.30176,-1.10463 -0.53277,-2.05052 -0.8442,-3.45672 -2.43943,-6.69212 -4.41658,-8.95747 -0.42609,-0.48823 -0.72517,-0.93724 -0.66461,-0.99781 0.0606,-0.0606 1.80261,-0.0293 3.8712,0.0694 l 3.76108,0.17954 0.75906,1.32909 c 1.10326,1.93173 2.60414,6.66874 2.80803,8.8626 l 0.17621,1.89589 h -2.82443 c -2.023,0 -2.85641,-0.0938 -2.93719,-0.33073 z m 9.30615,0.13229 c -0.0632,-0.10914 -0.20029,-0.90271 -0.30469,-1.76349 -0.28083,-2.31519 -1.11238,-5.2969 -2.16243,-7.75376 -0.51131,-1.19628 -0.86223,-2.28411 -0.77986,-2.4174 0.0824,-0.13328 0.54877,-0.31719 1.03642,-0.40868 1.5178,-0.28474 2.08917,-1.1708 2.23662,-3.46846 0.0838,-1.30621 0.23109,-1.96845 0.42376,-1.90565 0.83545,0.27234 3.72517,6.38542 4.70741,9.95826 0.65437,2.38026 1.2691,6.08131 1.08831,6.5524 -0.30636,0.7984 -5.8607,1.87162 -6.24554,1.20678 z m 15.69405,-28.1071 v -28.31529 h 15.5624 c 16.92711,0 16.8638,-0.005 19.69465,1.52312 0.69197,0.3735 1.30712,0.63007 1.36703,0.57017 0.41042,-0.41046 3.32417,-5.60353 4.36626,-7.78184 8.92855,-18.66362 3.60486,-29.21827 -17.41144,-34.51965 -9.41038,-2.37378 -19.61824,-3.28476 -36.54348,-3.26125 -25.85367,0.0359 -54.09003,2.83684 -116.68125,11.57428 -13.63155,1.9029 -12.96458,1.82513 -12.96458,1.51169 0,-0.35338 1.33856,-0.735 11.77396,-3.35671 30.39521,-7.63627 61.71182,-13.29171 88.50313,-15.98272 19.74765,-1.98352 42.0785,-2.1492 55.4302,-0.41125 8.29984,1.08037 17.17611,3.42787 22.58666,5.97349 7.59885,3.57522 12.82496,8.75884 15.03238,14.91023 1.1267,3.13973 1.44981,8.56913 0.74877,12.58169 -0.96671,5.5332 -4.25442,12.89974 -8.73829,19.57916 l -2.57538,3.83646 0.2974,1.79085 c 0.45698,2.75173 0.3852,17.33058 -0.0965,19.6043 -0.69382,3.27479 -2.61409,5.70078 -5.65145,7.13983 l -1.75982,0.83377 -10.18646,0.13229 -10.18646,0.13229 -0.13229,10.05417 -0.13229,10.05417 -6.15157,0.071 -6.15156,0.071 z m 17.81307,1.74446 c 0.0886,-0.42431 -2.60305,-3.86742 -3.13687,-4.01266 -0.29551,-0.0804 -1.30103,-0.11006 -2.23446,-0.0659 l -1.69714,0.0803 0.81918,0.92605 c 0.90344,1.02128 3.22225,2.50891 4.76998,3.06016 1.05005,0.37399 1.40317,0.37687 1.47931,0.0121 z m 7.76674,-0.69164 c 1.5339,-0.70162 4.05352,-2.69572 4.05352,-3.20806 0,-0.27861 -3.71612,-0.30421 -4.12371,-0.0284 -0.49644,0.33594 -2.75545,3.59012 -2.75545,3.96932 0,0.44479 0.57983,0.2944 2.82564,-0.73286 z m -6.0547,-1.52072 -0.0782,-1.78594 -1.38907,-0.08 c -0.90794,-0.0523 -1.38906,0.0242 -1.38906,0.22078 0,0.39302 2.38802,3.43107 2.69695,3.43107 0.13071,0 0.20244,-0.80367 0.15941,-1.78594 z m 3.19059,0.11602 c 0.60325,-0.78192 1.0968,-1.56572 1.0968,-1.74178 0,-0.21994 -0.43468,-0.29509 -1.38906,-0.24015 l -1.38906,0.08 -0.0812,1.42368 c -0.0872,1.52837 0.0713,2.26727 0.4377,2.04084 0.12539,-0.0775 0.72155,-0.78065 1.3248,-1.56256 z m -8.8532,-3.57625 c 0.13407,-0.21692 -0.96888,-4.54524 -1.29106,-5.06654 -0.092,-0.14884 -1.11273,-0.27062 -2.2683,-0.27062 h -2.10105 v 0.87802 c 0,1.26675 0.738,3.56414 1.33749,4.16364 0.41087,0.41088 0.88471,0.51459 2.35106,0.51459 1.01005,0 1.89741,-0.0986 1.97186,-0.21909 z m 5.58438,-2.55904 v -2.64583 h -2.64221 c -3.12063,0 -3.11621,-0.005 -2.27177,2.77475 0.75515,2.48619 1.00285,2.68966 3.15833,2.59446 l 1.75565,-0.0776 z m 6.1101,1.34334 c 0.36129,-0.78914 0.72898,-2.04365 0.81711,-2.7878 l 0.16023,-1.35301 -2.74997,0.0758 -2.74997,0.0758 -0.0771,2.36031 c -0.0424,1.29817 -0.0164,2.51856 0.0578,2.71198 0.0947,0.24672 0.69448,0.35167 2.00996,0.35167 h 1.87503 z m 5.5154,0.83514 c 0.57369,-0.87556 1.17274,-2.69569 1.26164,-3.83337 l 0.0774,-0.99094 h -2.2465 -2.2465 l -0.69839,2.51354 c -0.3841,1.38245 -0.64606,2.60284 -0.58214,2.71198 0.0639,0.10914 0.99941,0.19844 2.07889,0.19844 1.74757,0 2.0057,-0.0657 2.35556,-0.59965 z m -18.50094,-6.55015 c 0.32218,-0.5213 1.42513,-4.84961 1.29106,-5.06653 -0.0744,-0.1205 -0.96181,-0.21909 -1.97186,-0.21909 -1.46635,0 -1.94019,0.10371 -2.35106,0.51459 -0.59949,0.5995 -1.33749,2.89689 -1.33749,4.16364 v 0.87802 h 2.10105 c 1.15557,0 2.17631,-0.12178 2.2683,-0.27063 z m 6.87544,-2.5075 v -2.64583 l -1.44108,-0.0818 c -2.24936,-0.12764 -2.55265,0.0288 -3.14992,1.62522 -0.65376,1.74733 -0.9426,3.22448 -0.70551,3.60809 0.11623,0.18809 1.08505,0.26437 2.7382,0.21561 l 2.55831,-0.0755 z m 6.92607,1.43479 c -0.0875,-0.73883 -0.45712,-1.99429 -0.82137,-2.7899 l -0.66225,-1.44657 -1.92749,0.0779 -1.92746,0.0779 -0.0771,2.36031 c -0.0424,1.29817 -0.0164,2.51856 0.0578,2.71198 0.10002,0.26061 0.83178,0.35167 2.82594,0.35167 h 2.691 z m 5.93551,1.01261 c 0.11356,-1.28252 -0.62328,-3.99253 -1.29493,-4.7625 -0.3144,-0.36046 -0.82457,-0.46302 -2.30314,-0.46302 -1.0446,0 -1.96784,0.0686 -2.05166,0.15237 -0.13772,0.13772 1.00658,4.73014 1.29707,5.20544 0.21926,0.3588 4.32019,0.23416 4.35266,-0.13229 z m -17.7191,-6.62652 c 0.77508,-0.35361 3.48999,-3.79931 3.27176,-4.15242 -0.076,-0.12299 -0.58375,-0.10093 -1.12831,0.049 -1.70053,0.46824 -3.45461,1.49601 -4.76041,2.78925 l -1.25677,1.24468 1.19062,0.16633 c 1.79996,0.25146 1.92998,0.24676 2.68311,-0.0969 z m 4.93575,-1.84015 c 0.043,-0.98226 -0.0272,-1.78593 -0.15597,-1.78593 -0.29437,0 -2.70039,3.07726 -2.70039,3.45376 0,0.1692 0.5438,0.24675 1.38906,0.19808 l 1.38907,-0.08 z m 4.38899,1.5875 c -0.631,-1.07446 -2.58813,-3.3396 -2.78196,-3.2198 -0.26789,0.16557 -0.31477,3.11303 -0.0537,3.37414 0.097,0.097 0.81841,0.17639 1.60311,0.17639 1.06858,0 1.37798,-0.083 1.23251,-0.33073 z m 5.71923,0.0886 c 0,-0.44577 -2.49737,-2.45138 -3.96875,-3.18727 -1.87377,-0.93714 -2.91041,-1.19704 -2.91041,-0.72966 0,0.36987 2.26827,3.62686 2.75545,3.95654 0.41738,0.28244 4.12371,0.24684 4.12371,-0.0396 z m -35.81823,41.18636 c -0.0456,-0.1819 -0.39103,-1.60568 -0.76769,-3.16396 -1.28876,-5.33182 -3.57568,-10.14157 -6.94814,-14.61287 l -1.70968,-2.26678 v -15.87916 -15.87917 l 6.15156,0.071 6.15156,0.071 v 23.28333 c 0,21.54944 -0.0352,23.41141 -0.47329,25.00313 -0.6813,2.47577 -2.12254,4.49794 -2.40432,3.37343 z m -28.08567,-10.13745 c -2.35132,-1.48583 -5.62832,-2.67686 -8.1077,-2.94674 l -1.93943,-0.21112 -0.0679,-19.25332 -0.0679,-19.25331 6.15331,0.071 6.15328,0.071 0.0639,10.05416 c 0.0351,5.5298 -0.0287,10.19869 -0.14198,10.37531 -0.15846,0.24719 -0.81298,0.19708 -2.84199,-0.21756 -1.44989,-0.29629 -3.70499,-0.55987 -5.01134,-0.58573 l -2.37517,-0.047 -0.22188,1.55691 c -0.12692,0.89067 -0.12123,1.65754 0.0132,1.79208 0.12933,0.12934 1.49241,0.34563 3.02903,0.48064 3.18135,0.2795 6.14093,0.90302 7.01987,1.47892 0.5606,0.36732 0.59831,0.57222 0.59452,3.23037 -0.003,1.56099 -0.10549,2.99823 -0.2295,3.19387 -0.18312,0.28897 -0.57454,0.22977 -2.08626,-0.31554 -2.31683,-0.83576 -5.72506,-1.49537 -7.7265,-1.49537 h -1.52125 l -0.15515,1.50336 c -0.0854,0.82685 -0.095,1.60076 -0.0214,1.71979 0.0735,0.11904 0.7089,0.21643 1.41182,0.21643 3.11068,0 9.49923,1.84806 10.06903,2.91274 0.30856,0.57656 0.35986,6.52138 0.0579,6.70802 -0.11301,0.0698 -1.03574,-0.39768 -2.05052,-1.03894 z"
       id="path882"
       inkscape:connector-curvature="0"
       sodipodi:nodetypes="ccsscscccccsccccccccccccccccccscssssscsccccsccccssccccccccccccccccccccccsccccccscccccscccscsccccccccccsscccccccscscccscsccsscscccscccccccccccccccccccccccccccccccsccccccccccscscsscsscscccccccccsccscccccccccccccsccccccccccccccsccssssssssccsccccccccccccccccccccccscsccccsscccsccccccccscscscccscccccccccccscccccccccsccccscscsccccccccccccccccsccccsccccccscccccssccccccsccssscssccccccccsccccccccccccccccccccccscccscccc" />
    <path
       style="opacity:1;fill:#022034;fill-opacity:0.50196081;stroke:none;stroke-width:4.18751574;stroke-linecap:square;stroke-linejoin:miter;stroke-miterlimit:4;stroke-dasharray:none;stroke-opacity:1;paint-order:markers stroke fill"
       d="m 161.76766,393.69141 0.0181,-19.9099 c -0.079,-19.48936 -0.17457,-22.45417 0.33538,-21.94387 0.13514,0.13515 2.45159,9.21646 5.26893,20.34293 3.77363,14.90321 5.33702,20.65489 5.9371,21.84363 0.85848,1.70061 1.99896,2.85136 3.41375,3.44424 1.24669,0.52242 4.38417,0.5451 5.67872,-0.0429 1.35164,-0.61394 2.92208,-2.28354 3.6313,-4.05453 0.30104,-0.75173 2.68987,-10.27565 5.46995,-21.04316 2.78009,-10.76753 5.11041,-19.63437 5.1785,-19.74452 0.54913,-0.88852 0.48937,1.60194 0.48937,21.82656 v 22.29995 h 4.90255 l 5.10149,0.0331 -0.12481,-24.35393 c -0.074,-24.10083 0.0415,-24.20865 -0.53301,-25.60997 -0.83232,-2.03025 -2.26395,-3.61145 -4.18542,-4.64422 -1.54722,-0.83164 -2.15837,-1.2344 -4.75454,-1.3287 -4.10308,-0.0619 -6.29089,1.28593 -8.01864,2.59442 -2.17065,1.64397 -1.67993,2.73721 -5.87722,21.35209 -2.22207,9.85483 -4.56189,17.97005 -4.69015,18.10586 -1.13405,-4.33974 -3.46086,-14.90095 -4.1491,-18.04644 -2.15797,-9.88385 -4.1502,-18.53426 -4.38682,-19.10219 -1.65024,-3.44952 -4.37868,-4.90342 -6.64981,-5.51415 -3.19075,6.1051 -11.2526,22.05431 -13.55496,26.55381 0.0605,2.01959 0.0246,2.47925 0.11628,4.33671 3.49599,7.13653 7.40956,15.47209 11.38307,22.6052 z M 236.884,341.73593 c -0.0815,0.049 -0.18543,0.087 -0.32194,0.11782 -0.33661,0.0761 -4.36545,0.16912 -8.95295,0.20722 l -8.34109,0.0698 -1.76991,0.87178 c -1.94112,0.95615 -3.04564,2.09767 -4.02146,4.15531 -1.20041,2.53118 -1.24134,3.3578 -1.15549,23.41561 l 0.0811,18.91771 0.69454,1.47897 c 1.11235,2.36955 2.69261,3.69678 5.89421,4.95009 0.90819,0.35552 2.8519,0.44804 11.97962,0.56948 2.52888,0.0336 8.0932,0.0739 11.03505,0.11901 -4.93315,-3.50752 -4.88487,-10.29206 -4.88487,-10.29206 l -5.27168,0.0408 c -2.83766,0.023 -5.56141,-0.0541 -6.05286,-0.17156 -1.2603,-0.30144 -2.19687,-1.05868 -2.80602,-2.26859 -0.43615,-0.86633 -0.54042,-1.71109 -0.62219,-5.02968 -0.0853,-3.4622 -0.0398,-4.04727 0.34469,-4.43177 0.39048,-0.39047 1.22221,-0.44339 7.01713,-0.44339 3.61573,0 6.76216,0.0724 6.99235,0.16074 0.0611,0.0235 0.11438,0.06 0.16174,0.10385 v -10.59315 c -0.0165,0.0154 -0.0328,0.0311 -0.0506,0.0424 -0.19463,0.12338 -3.35211,0.22617 -7.01612,0.22842 -5.70708,0.003 -6.7214,-0.0556 -7.07759,-0.41188 -0.33323,-0.33324 -0.41434,-1.05542 -0.40928,-3.63802 0.01,-4.92662 0.45019,-6.13553 2.6448,-7.2569 1.08861,-0.55626 1.49835,-0.59531 6.24664,-0.59531 2.79494,0 5.27026,0.0719 5.50045,0.1602 0.0611,0.0235 0.11438,0.06 0.16174,0.10385 z"
       id="rect943"
       inkscape:connector-curvature="0"
       sodipodi:nodetypes="cccsccccscsccccccccsccccccccccccccccccccccccsccccccccscccc" />
    <path
       style="opacity:1;fill:#000000;fill-opacity:1;stroke:#3c9d70;stroke-width:0;stroke-miterlimit:4;stroke-dasharray:none;stroke-opacity:1"
       d="m 197.21359,339.46571 c -3.09706,0.003 -6.13956,1.00811 -8.06566,2.87424 -0.63072,0.61108 -1.44208,1.68775 -1.80299,2.39262 -0.41792,0.81618 -1.95634,6.67712 -4.23695,16.13959 -1.96957,8.17191 -3.63097,14.90963 -3.69177,14.97273 -0.3765,0.39057 -0.95338,-1.87817 -3.80028,-14.94586 -3.42489,-15.72071 -3.76668,-16.8336 -5.72213,-18.63607 -1.30365,-1.20167 -2.1206,-1.65013 -4.04833,-2.22106 -1.53483,-0.45455 -2.14147,-0.27534 -2.14147,0.63201 0,0.33274 0.34956,0.55335 1.22628,0.77411 2.55474,0.64329 4.67775,2.31688 5.52834,4.35839 0.23662,0.56791 2.19578,9.11964 4.35374,19.00349 2.15797,9.88385 3.99622,18.04291 4.08502,18.13171 0.0888,0.0888 0.26655,0.0506 0.39481,-0.0853 0.12826,-0.13583 2.16401,-8.28373 4.52427,-18.10639 4.70058,-19.56227 4.9209,-20.24052 7.09156,-21.88446 1.72774,-1.3085 3.56029,-1.73854 6.89363,-1.61747 2.59618,0.0943 2.94037,0.1709 4.48759,1.00252 1.92147,1.03279 3.26665,2.52916 4.09897,4.55942 0.5745,1.40128 0.57557,1.44593 0.64957,25.54676 l 0.0739,24.14322 h -4.90254 -4.90306 v -22.0927 c 0,-20.22461 -0.0725,-22.78073 -0.62166,-21.89221 -0.0681,0.11018 -2.39841,9.01009 -5.1785,19.77761 -2.78008,10.76751 -5.30068,20.19222 -5.60172,20.94394 -0.70922,1.771 -2.18045,3.47316 -3.53209,4.08709 -1.29455,0.588 -4.26666,0.66506 -5.51336,0.14263 -1.41479,-0.59289 -2.55528,-1.74363 -3.41374,-3.44424 -0.60009,-1.18876 -2.16347,-6.94043 -5.93711,-21.84363 -2.81733,-11.12647 -5.23301,-20.34061 -5.36815,-20.47575 -0.50974,-0.51029 -0.57974,2.55374 -0.50074,22.0431 l 0.0811,19.97604 0.60048,1.12448 c 0.33038,0.61847 0.71733,1.12448 0.85989,1.12448 0.16632,0 0.25942,-5.59576 0.25942,-15.61042 0,-9.81335 0.0943,-15.61041 0.25425,-15.61041 0.3021,0 -0.0137,-1.16134 4.08709,15.0275 3.30506,13.04749 3.96714,15.1171 5.42447,16.95711 0.90456,1.14212 2.95945,2.33761 4.58008,2.66443 2.61889,0.52813 5.83043,-0.39235 7.53495,-2.16007 1.69279,-1.75557 2.3235,-3.64151 6.09523,-18.21956 2.09398,-8.09337 3.78662,-14.1415 3.97495,-14.2043 0.25857,-0.0862 0.32763,3.41579 0.32763,16.55351 0,14.94994 0.0431,16.67866 0.41858,16.82274 0.54587,0.20949 11.58206,0.20949 12.12794,0 0.37741,-0.14483 0.41806,-2.54638 0.41806,-24.46103 0,-16.7532 -0.091,-24.73568 -0.293,-25.70231 -0.66768,-3.1946 -3.00589,-6.21567 -5.77174,-7.45691 -1.66853,-0.74879 -3.5466,-1.10746 -5.40484,-1.10536 z m 31.20274,0.71985 c -8.72709,-0.0307 -11.18957,0.54741 -13.79657,2.93006 -1.67324,1.52925 -2.80397,3.54338 -3.49281,6.22236 -0.41441,1.6115 -0.45889,3.58204 -0.45889,20.17448 0,13.82728 0.082,18.73808 0.33177,19.79724 1.19378,5.06297 4.91561,8.07067 10.84895,8.7669 7.20417,0.0547 14.38749,0.01 21.6271,-0.093 -0.74933,-0.49262 -0.70967,-0.57732 -1.51594,-1.26743 -2.0497,-0.098 -0.31975,-0.0882 -10.87193,-0.22861 -9.12773,-0.12143 -11.07093,-0.21395 -11.97912,-0.56947 -3.2016,-1.25331 -4.78237,-2.58055 -5.89473,-4.95009 l -0.69453,-1.47949 -0.0806,-18.91771 c -0.0858,-20.05781 -0.0454,-20.88443 1.15497,-23.41563 0.97582,-2.05763 2.08086,-3.19915 4.02198,-4.1553 l 1.76991,-0.87178 8.3411,-0.0693 c 4.5875,-0.0381 8.61633,-0.13164 8.95294,-0.20774 0.48436,-0.10952 0.59466,-0.28826 0.52916,-0.85679 l -0.0827,-0.71831 -6.87916,-0.0765 c -0.63939,-0.007 -1.24909,-0.012 -1.8309,-0.014 z m 2.92334,11.86439 c -4.74829,0 -5.15803,0.0391 -6.24665,0.59532 -2.19461,1.12139 -2.6348,2.33028 -2.6448,7.25692 -0.005,2.58258 0.0761,3.30478 0.40928,3.63802 0.35619,0.35626 1.37051,0.41486 7.0776,0.41186 3.664,-0.002 6.82097,-0.10504 7.0156,-0.22841 0.19458,-0.12337 0.31368,-0.50841 0.26458,-0.85576 l -0.0889,-0.63149 -6.35,-0.13229 -6.35,-0.13229 -0.077,-3.04271 c -0.0422,-1.67349 -0.0109,-3.3086 0.0698,-3.63337 0.2964,-1.19254 1.28607,-1.39371 6.85126,-1.39371 2.83299,0 5.3395,-0.0724 5.56969,-0.16071 0.54252,-0.20818 0.54252,-1.32247 0,-1.53066 -0.23019,-0.0883 -2.70551,-0.16071 -5.50044,-0.16071 z M 151.5833,364.181 c -0.38198,0.71643 -0.86362,1.48397 -1.32706,2.23897 -0.002,1.72721 -0.0279,3.25944 -0.003,4.74662 0.63665,1.14818 0.84301,1.55305 1.45107,2.61227 -0.0568,-2.70513 -0.11055,-7.08531 -0.12101,-9.59786 z m 78.26395,9.82937 c -5.79493,0 -6.62666,0.0524 -7.01714,0.44287 -0.38449,0.3845 -0.42998,0.96956 -0.34468,4.43177 0.0818,3.31858 0.18655,4.16387 0.6227,5.03018 0.60915,1.20993 1.5452,1.96665 2.80551,2.26808 0.49146,0.11749 3.21572,0.19509 6.05338,0.17209 l 5.15938,-0.0419 v -0.79375 -0.79375 l -5.77846,-0.1323 -5.77794,-0.13229 -0.63821,-0.74259 c -0.60579,-0.70492 -0.63769,-0.92174 -0.63769,-4.29948 v -3.55688 h 6.06372 c 3.33507,0 6.2521,-0.0724 6.48229,-0.16072 0.54252,-0.20819 0.54252,-1.32247 0,-1.53065 -0.23019,-0.0883 -3.37714,-0.16072 -6.99286,-0.16072 z"
       id="rect903"
       inkscape:connector-curvature="0"
       sodipodi:nodetypes="cccscsccssccccsscccccccscscsccsccccsssscscscsccscscccccsccccsccccscccccccccccccccccccccscccccccccccccccccccscscccccc" />
  </g>
</svg>
