<?xml version="1.0" encoding="UTF-8" standalone="no"?>
<svg
   xmlns:dc="http://purl.org/dc/elements/1.1/"
   xmlns:cc="http://creativecommons.org/ns#"
   xmlns:rdf="http://www.w3.org/1999/02/22-rdf-syntax-ns#"
   xmlns:svg="http://www.w3.org/2000/svg"
   xmlns="http://www.w3.org/2000/svg"
   xmlns:sodipodi="http://sodipodi.sourceforge.net/DTD/sodipodi-0.dtd"
   xmlns:inkscape="http://www.inkscape.org/namespaces/inkscape"
   version="1.1"
   x="0px"
   y="0px"
   viewBox="0 0 26.533001 22.719999"
   enable-background="new 0 0 32 32"
   xml:space="preserve"
   id="svg8"
   sodipodi:docname="noun_split_5057.svg"
   width="26.533001"
   height="22.719999"
   inkscape:version="0.92.2 5c3e80d, 2017-08-06"><metadata
     id="metadata14"><rdf:RDF><cc:Work
         rdf:about=""><dc:format>image/svg+xml</dc:format><dc:type
           rdf:resource="http://purl.org/dc/dcmitype/StillImage" /><dc:title></dc:title></cc:Work></rdf:RDF></metadata><defs
     id="defs12" /><sodipodi:namedview
     pagecolor="#ffffff"
     bordercolor="#666666"
     borderopacity="1"
     objecttolerance="10"
     gridtolerance="10"
     guidetolerance="10"
     inkscape:pageopacity="0"
     inkscape:pageshadow="2"
     inkscape:window-width="1103"
     inkscape:window-height="739"
     id="namedview10"
     showgrid="false"
     fit-margin-top="0"
     fit-margin-left="0"
     fit-margin-right="0"
     fit-margin-bottom="0"
     inkscape:zoom="8.34386"
     inkscape:cx="-2.6546304"
     inkscape:cy="6.4453789"
     inkscape:window-x="0"
     inkscape:window-y="0"
     inkscape:window-maximized="0"
     inkscape:current-layer="svg8" /><path
     d="M 18.975,16.548 C 17.183,16.311 16.063,15.217 14.617,13.662 13.92,12.91 13.189,12.08 12.293,11.343 13.689,10.178 14.705,8.823 15.776,7.84 16.787,6.919 17.677,6.32 18.975,6.152 V 8.726 L 26.531,4.363 18.975,0 V 2.652 C 15.634,2.918 13.525,5.03 12.04,6.665 11.222,7.561 10.503,8.357 9.828,8.857 9.143,9.358 8.601,9.587 7.815,9.599 c -0.001,0 -0.002,0 -0.003,0 H 0 v 3.5 H 0.001 V 13.1 c 0,0 0.046,-10e-4 0.137,-10e-4 h 7.677 c 0.786,0.011 1.33,0.241 2.017,0.743 1.021,0.742 2.095,2.181 3.552,3.568 1.312,1.258 3.163,2.459 5.593,2.646 v 2.664 l 7.556,-4.356 -7.556,-4.361 z"
     id="path2"
     style="fill:#ffffff;fill-opacity:1"
     inkscape:connector-curvature="0" /></svg>